<svg xmlns="http://www.w3.org/2000/svg" viewBox="0 0 512 512" width="512" height="512">
  <!-- House outline - positioned on left side and scaled up -->
  <g transform="translate(40, 80) scale(0.75)">
    <path d="M256 80L32 256l32 0 0 176 384 0 0-176 32 0z" fill="#f5f5f5" stroke="#333333" stroke-width="24" stroke-linejoin="round"/>
    <!-- Roof -->
    <path d="M256 80L96 216 96 256 416 256 416 216z" fill="#e64a19" stroke="#bf360c" stroke-width="8" stroke-linejoin="round"/>
    <!-- Door -->
    <rect x="220" y="300" width="80" height="130" fill="#8d6e63" stroke="#5d4037" stroke-width="8" rx="4" ry="4"/>
    <!-- Doorknob -->
    <circle cx="280" cy="360" r="8" fill="#f5f5f5" stroke="#333333" stroke-width="2"/>
  </g>
  
  <!-- Thermometer - positioned on right side and scaled up -->
  <g transform="translate(320, 120) scale(1.35)">
    <rect x="55" y="40" width="40" height="160" rx="20" ry="20" fill="#f5f5f5" stroke="#333333" stroke-width="8"/>
    <circle cx="75" cy="200" r="30" fill="#e53935" stroke="#333333" stroke-width="8"/>
    <rect x="65" y="80" width="20" height="120" rx="10" ry="10" fill="#e53935"/>
    <!-- Thermometer markers - centered inside -->
    <line x1="60" y1="80" x2="90" y2="80" stroke="#333333" stroke-width="4"/>
    <line x1="60" y1="120" x2="90" y2="120" stroke="#333333" stroke-width="4"/>
    <line x1="60" y1="160" x2="90" y2="160" stroke="#333333" stroke-width="4"/>
  </g>
</svg>
